<svg t="1636343315453" class="icon" viewBox="0 0 1024 1024" version="1.1" xmlns="http://www.w3.org/2000/svg" p-id="16733" width="200" height="200"><path d="M520 48C321.6 48 160 208 160 404.8c0 46.4 8 89.6 24 131.2 4.8 14.4 11.2 27.2 19.2 40 38.4 76.8 140.8 248 316.8 352 176-104 278.4-275.2 316.8-352C864 524.8 880 467.2 880 404.8 880 208 718.4 48 520 48z m0 665.6c-169.6 0-305.6-136-305.6-304s137.6-304 305.6-304c169.6 0 305.6 136 305.6 304s-136 304-305.6 304z" fill="#2283F6" p-id="16734"></path><path d="M435.2 368c-9.6 36.8-20.8 73.6-30.4 110.4-8 27.2-8 27.2-38.4 25.6-16-57.6-30.4-115.2-46.4-176h28.8c11.2 48 20.8 96 33.6 147.2 9.6-38.4 17.6-72 27.2-107.2 1.6-4.8 3.2-11.2 4.8-16 6.4-25.6 6.4-25.6 35.2-24 12.8 48 25.6 97.6 40 150.4 9.6-46.4 19.2-88 28.8-129.6 4.8-24 4.8-24 32-20.8-16 59.2-30.4 116.8-46.4 174.4-27.2 4.8-27.2 4.8-35.2-20.8-9.6-38.4-20.8-75.2-30.4-113.6h-3.2z m-72-59.2h-24c0-20.8-1.6-43.2 0-64 1.6-17.6 19.2-32 36.8-35.2 8-1.6 14.4-1.6 22.4-1.6h248c44.8 0 60.8 16 60.8 62.4v38.4h-25.6v-43.2c0-22.4-8-28.8-28.8-28.8H390.4c-20.8 0-28.8 8-28.8 28.8 1.6 12.8 1.6 27.2 1.6 43.2z m-25.6 214.4h25.6v43.2c0 22.4 8 28.8 28.8 28.8h262.4c20.8 0 27.2-8 28.8-28.8v-40s0-1.6 1.6-3.2h22.4c0 20.8 1.6 41.6 0 62.4-1.6 17.6-19.2 32-36.8 35.2-8 1.6-16 1.6-24 1.6H401.6c-48 0-62.4-16-62.4-64-1.6-9.6-1.6-22.4-1.6-35.2z m358.4-80c8 1.6 16 3.2 22.4 4.8 0 27.2-20.8 51.2-49.6 57.6-32 6.4-62.4 1.6-83.2-24-25.6-30.4-27.2-67.2-14.4-104 11.2-32 40-51.2 75.2-52.8 33.6 0 60.8 17.6 73.6 52.8-8 1.6-16 4.8-24 6.4-1.6-3.2-3.2-4.8-4.8-6.4-8-19.2-22.4-28.8-43.2-28.8-20.8 0-36.8 11.2-46.4 28.8-12.8 25.6-12.8 51.2-3.2 76.8 8 20.8 27.2 33.6 46.4 33.6 20.8 0 36.8-12.8 46.4-35.2l4.8-9.6z" fill="#2283F6" p-id="16735"></path></svg>