<svg 
 xmlns="http://www.w3.org/2000/svg"
 xmlns:xlink="http://www.w3.org/1999/xlink"
 width="61px" height="61px">
<defs>
<linearGradient id="PSgrad_0" x1="0%" x2="81.915%" y1="0%" y2="57.358%">
  <stop offset="0%" stop-color="rgb(103,170,221)" stop-opacity="1" />
  <stop offset="65%" stop-color="rgb(163,202,232)" stop-opacity="1" />
  <stop offset="100%" stop-color="rgb(223,233,242)" stop-opacity="1" />
</linearGradient>

</defs>
<path fill-rule="evenodd"  fill="rgb(56, 161, 219)"
 d="M30.499,0.497 C13.929,0.497 0.498,13.929 0.498,30.499 C0.498,47.68 13.929,60.500 30.499,60.500 C47.68,60.500 60.501,47.68 60.501,30.499 C60.501,13.929 47.68,0.497 30.499,0.497 L30.499,0.497 L30.499,0.497 ZM40.704,41.893 L39.644,42.954 C39.58,43.540 38.108,43.540 37.522,42.954 L27.794,33.226 C27.458,32.890 27.499,32.214 27.499,31.548 L27.499,12.497 C27.499,11.669 28.171,10.998 28.999,10.998 L30.499,10.998 C31.327,10.998 31.999,11.669 31.999,12.497 L31.999,31.67 L40.704,39.772 C41.290,40.358 41.290,41.307 40.704,41.893 L40.704,41.893 L40.704,41.893 Z"/>
<path fill="url(#PSgrad_0)"
 d="M30.499,0.497 C13.929,0.497 0.498,13.929 0.498,30.499 C0.498,47.68 13.929,60.500 30.499,60.500 C47.68,60.500 60.501,47.68 60.501,30.499 C60.501,13.929 47.68,0.497 30.499,0.497 L30.499,0.497 L30.499,0.497 ZM40.704,41.893 L39.644,42.954 C39.58,43.540 38.108,43.540 37.522,42.954 L27.794,33.226 C27.458,32.890 27.499,32.214 27.499,31.548 L27.499,12.497 C27.499,11.669 28.171,10.998 28.999,10.998 L30.499,10.998 C31.327,10.998 31.999,11.669 31.999,12.497 L31.999,31.67 L40.704,39.772 C41.290,40.358 41.290,41.307 40.704,41.893 L40.704,41.893 L40.704,41.893 Z"/>
</svg>